<svg xmlns="http://www.w3.org/2000/svg" width="58" height="58"><title>Artboard</title><desc>Created with Sketch.</desc><g><title>background</title><rect id="canvas_background" width="60" height="60" x="-1" y="-1" fill="none"/></g><g><title>Layer 1</title><g id="Artboard" fill="none" fill-rule="evenodd"><rect id="Rectangle" width="52" height="37" x="0" y="11" fill="#2e2e2e" rx="5"/><path id="Rectangle" fill="#6c6c6c" stroke="#fff" stroke-width="2.5" d="m42,20.75l10.5,0c2.071072,0 3.75,1.67893 3.75,3.75l0,9c0,2.071068 -1.678928,3.75 -3.75,3.75l-10.5,0c-4.556351,0 -8.25,-3.693649 -8.25,-8.25c0,-4.556351 3.693649,-8.25 8.25,-8.25z"/><circle id="Oval" cx="42" cy="29" r="3" fill="#fff"/><g id="Ethereum_logo_2014" fill="#fff" fill-rule="nonzero" transform="translate(16 18.5) scale(-1, 1) translate(-16 -18.5) translate(8 5)"><polygon id="Path" points="8 11 8 29 16 24.272"/><polygon id="Path" points="8 11 0 24.272 8 29 8 20.636"/><polygon id="Path" points="8.097 31.612 8 31.729 8 37.719 8.097 38 16 27"/><polygon id="Path" points="8 38 8 31.612 0 27"/></g></g></g></svg>